<?xml version="1.0" encoding="utf-8"?>
<!-- Generator: Adobe Illustrator 25.1.0, SVG Export Plug-In . SVG Version: 6.00 Build 0)  -->
<svg version="1.1" id="Layer_1" xmlns="http://www.w3.org/2000/svg" xmlns:xlink="http://www.w3.org/1999/xlink" x="0px" y="0px"
	 viewBox="0 0 160 160" style="enable-background:new 0 0 160 160;" xml:space="preserve">
<style type="text/css">
	.st0{fill:none;stroke:#FFFFFF;stroke-width:2.3;stroke-miterlimit:10;}
	.st1{fill:none;}
	.st2{fill:#FFFFFF;}
</style>
<path class="st0" d="M61.8,14.7c0-4.4-4.4-8-9.9-8c-0.8,0-1.6,0.1-2.3,0.2c-1.4-2.6-4.3-4.4-7.6-4.4c-2.1,0-3.9,0.7-5.4,1.8
	c-1.1-0.4-2.3-0.7-3.5-0.7c-3.1,0-5.8,1.6-7.2,3.8c-4.5,0.2-8.1,3.6-8.1,7.9c0,4.2,3.5,7.6,7.8,7.9c1.5,2.3,4.1,3.8,7.2,3.8
	c1.6,0,3.2-0.4,4.4-1.2c1.4,1,3.1,1.6,5,1.6c2.2,0,4.3-0.8,5.8-2.1c0.2,0,0.4,0,0.7,0c2.8,0,5.2-1.3,6.8-3.3
	C59.3,20.9,61.8,18.1,61.8,14.7z"/>
<g>
	<path class="st0" d="M139.9,89L139.9,89l-16.6-22.3l-6,22.3h-3.9L96.8,66.8l-6,22.3h-3.9L70.3,66.8l-6,22.3H47l-2-26.9h-5.1h-5.1
		l-2,26.9H20.1c-0.3,0-0.6,0.3-0.6,0.6v49.1c0,0.3,0.3,0.6,0.6,0.6h90c-0.6-1.8,0-3.8,1.7-5c0.2-0.1,0.3-0.2,0.5-0.3
		c0.9-0.3,1.4-0.9,1.3-2.1c-0.1-1-0.3-1.8-1.1-2.3c-1.9-1.6-3.8-3.2-5.6-4.9c-0.9-0.8-1.3-1.9-1.3-3.2c0-1.7,0-3.4,0-5
		c0-0.4-0.1-0.7-0.4-1c-1-0.7-1.5-1.8-1.2-3.1c0.3-1.3,1.1-1.8,2.1-2.2c1.3-0.4,2.6-0.2,3.6,0.6c1.5,1.3,1.5,3.1,0,4.5
		c-0.5,0.5-0.9,1-0.8,1.8c0.1,1.1,0.1,2.2,0,3.4c-0.2,1.7,0.5,2.6,1.6,3.5c0.9,0.6,1.7,1.4,2.6,2.1c0.2,0.1,0.3,0.4,0.4,0.2
		c0.2-0.1,0.1-0.3,0.1-0.5c0-0.8,0-1.7,0-2.5c0.2-2.6,0.2-5.2,0.2-7.8c0-3.4,0-6.7,0.1-10.1c0-0.7-0.2-1-0.9-1c-0.4,0.1-0.9,0-1.5,0
		c-0.3,0-0.4-0.2-0.3-0.5c1.3-1.9,2.6-3.8,3.8-5.7c0.3-0.6,0.6-0.5,0.9,0c0.8,1.3,1.6,2.6,2.4,3.8c0.4,0.6,0.8,1.2,1.1,1.8
		c0.1,0.2,0.3,0.2,0.2,0.4c-0.1,0.2-0.3,0.2-0.4,0.2c-0.4,0-0.9,0-1.3,0c-0.7-0.1-0.9,0.2-0.9,1c0,3,0,5.8-0.1,8.8
		c0,1.8,0,3.8,0,5.6c0,0.2-0.1,0.5,0.2,0.6c0.2,0.1,0.3-0.2,0.4-0.2c1.1-1,2.3-1.9,3.4-2.9c0.5-0.4,0.8-1,0.8-1.7s0-1.4,0-2.1
		c0-0.5-0.2-0.6-0.6-0.6c-0.2,0-0.4,0-0.6,0c-0.4,0-0.6-0.2-0.6-0.7c0-1.6,0-3.3,0-4.9c0-0.5,0.2-0.7,0.6-0.7c1.9,0,3.8,0,5.7,0
		c0.4,0,0.6,0.2,0.6,0.7c0,1.6-0.1,3.1,0,4.7c0,0.6-0.3,0.8-0.8,0.8c-0.9,0-0.9,0-0.9,1c0,0.2,0,0.4,0,0.6c0.3,2.6-0.9,4.3-2.6,5.7
		c-1.6,1.3-3.2,2.6-4.9,4c-0.5,0.4-0.7,0.9-0.7,1.6c0,2.3,0,4.7-0.1,7c0,0.6,0.2,0.8,0.6,1c1.4,0.6,2.5,1.5,2.9,3
		c0.3,0.9,0.2,1.8-0.1,2.6h19.6c0.3,0,0.6-0.3,0.6-0.6V89.7C140.5,89.3,140.2,89,139.9,89z"/>
	<path class="st0" d="M110.4,139.4"/>
	<path class="st0" d="M110.4,139.4h-0.2c0.2,0.6,0.6,1.2,1.1,1.7c1.8,1.8,4.6,2.2,6.7,1c1.2-0.6,2-1.6,2.3-2.6h-0.2"/>
	<ellipse class="st0" cx="39.9" cy="61.4" rx="6.2" ry="0.7"/>
</g>
<g>
	<rect x="13.5" y="144.8" class="st1" width="146.5" height="15.2"/>
	<path class="st2" d="M14.8,157.3l-1.2-1.2v-8.8h1.2l1.2,1.2v8.8H14.8z"/>
	<path class="st2" d="M18.9,157.3v-8.8l1.2-1.2h1.2v0.6l5,5v-5.6h1.2l1.2,1.2v7.5l-1.2,1.2h-1.2v-0.6l-5-5v5.6H18.9z"/>
	<path class="st2" d="M33,157.3l-1.2-1.2v-7.5l1.2-1.2h7.5l1.2,1.2v7.5l-1.2,1.2H33z M39.3,154.8v-5h-5v5H39.3z"/>
	<path class="st2" d="M44.7,157.3v-2.5h7.5v-5h-5v2.5l-1.2,1.2h-1.2v-6.2h8.8l1.2,1.2v7.5l-1.2,1.2H44.7z"/>
	<path class="st2" d="M58.8,157.3l-1.2-1.2v-8.8h1.2l1.2,1.2v8.8H58.8z"/>
	<path class="st2" d="M64.2,157.3l-1.2-1.2v-7.5l1.2-1.2H73v1.2l-1.2,1.2h-6.2v5h3.8v2.5H64.2z M71.7,157.3l-1.2-1.2v-2.5h-3.8v-2.5
		H73v6.2H71.7z"/>
	<path class="st2" d="M77.1,157.3l-1.2-1.2v-8.8h1.2l1.2,1.2v8.8H77.1z"/>
	<path class="st2" d="M86.2,157.3l-1.2-1.2v-6.2h-2.5l-1.2-1.2v-1.2h10v1.2l-1.2,1.2h-2.5v7.5H86.2z"/>
	<path class="st2" d="M94.1,157.3v-8.8l1.2-1.2h7.5l1.2,1.2v7.5l-1.2,1.2h-1.2v-2.5h-5v2.5H94.1z M101.6,152.3v-2.5h-5v2.5H101.6z"
		/>
	<path class="st2" d="M108.3,157.3l-1.2-1.2v-8.8h1.2l1.2,1.2v6.2h6.2l1.2,1.2v1.2H108.3z"/>
	<path class="st2" d="M121.2,157.3l-1.2-1.2v-1.2h7.5v-1.2h-6.2l-1.2-1.2v-3.8l1.2-1.2h8.8v1.2l-1.2,1.2h-6.2v1.2h6.2l1.2,1.2v3.8
		l-1.2,1.2H121.2z"/>
	<path class="st2" d="M134.1,157.3l-1.2-1.2v-8.8h1.2l1.2,1.2v8.8H134.1z"/>
	<path class="st2" d="M139.4,157.3l-1.2-1.2v-7.5l1.2-1.2h8.8v1.2l-1.2,1.2h-6.2v5h3.8v2.5H139.4z M146.9,157.3l-1.2-1.2v-2.5h-3.8
		v-2.5h6.2v6.2H146.9z"/>
</g>
<g>
	<path class="st2" d="M22.6,40.4c0.1-0.6,0.5-1,0.9-1.4c1-0.9,2-1.8,3.1-2.5c1.6-1.1,3.4-2,5.2-2.7c1.3-0.5,2.6-0.8,3.9-1
		c0.8-0.1,1.6-0.2,2.4-0.3c0.8-0.1,1.7-0.1,2.5,0c0.9,0,1.8,0.1,2.7,0.3c1.4,0.2,2.8,0.6,4.1,1c2.8,1,5.3,2.4,7.6,4.4
		c0.5,0.4,0.9,0.8,1.3,1.2c0.7,0.7,0.7,1.9,0.1,2.6c-0.7,0.9-2,0.9-2.8,0.1c-1-1-2-1.8-3.2-2.6C48.8,38.4,47,37.6,45,37
		c-1-0.3-2-0.5-3.1-0.6c-0.9-0.1-1.8-0.1-2.6-0.1c-1.8,0.1-3.7,0.3-5.4,0.9c-2.3,0.7-4.3,1.8-6.2,3.3c-0.6,0.5-1.2,1-1.7,1.5
		c-0.6,0.5-1.2,0.7-2,0.5c-0.7-0.2-1.2-0.7-1.3-1.4c0,0,0-0.1,0-0.1C22.6,40.8,22.6,40.6,22.6,40.4z"/>
	<path class="st2" d="M39.4,57.8c-0.3-0.1-0.5-0.1-0.7-0.3c-0.8-0.5-1.3-1.4-1.1-2.4c0.2-0.9,0.9-1.6,1.9-1.8c1.2-0.2,2.4,0.7,2.6,2
		c0.1,1.1-0.6,2.2-1.7,2.4c0,0-0.1,0-0.1,0C39.9,57.8,39.6,57.8,39.4,57.8z"/>
	<path class="st2" d="M39.8,39.4c2.8,0,5.4,0.6,7.9,1.9c1.3,0.7,2.5,1.6,3.6,2.6c0.3,0.3,0.6,0.5,0.7,0.9c0.6,1.2-0.3,2.6-1.6,2.6
		c-0.6,0-1-0.2-1.4-0.6c-1.4-1.4-3.1-2.4-5-3.1c-1-0.3-1.9-0.5-2.9-0.6c-2.6-0.2-5,0.2-7.3,1.4c-1.1,0.6-2.2,1.3-3.1,2.2
		c-0.3,0.3-0.7,0.5-1.1,0.6c-0.9,0.2-1.9-0.5-2.1-1.4c-0.1-0.7,0-1.2,0.5-1.7c2.1-2.1,4.5-3.5,7.4-4.3c0.9-0.3,1.9-0.4,2.8-0.5
		C38.7,39.5,39.3,39.4,39.8,39.4z"/>
	<path class="st2" d="M39.7,46c2.6,0,4.8,0.8,6.7,2.5c0.2,0.2,0.5,0.4,0.7,0.6c0.4,0.6,0.6,1.2,0.3,1.9c-0.3,0.7-0.8,1-1.5,1.1
		c-0.6,0.1-1.1-0.1-1.5-0.5c-0.9-0.9-1.9-1.5-3.2-1.7c-2.1-0.4-4,0-5.7,1.4c-0.2,0.1-0.3,0.3-0.5,0.5c-0.6,0.4-1.2,0.6-1.8,0.3
		c-0.7-0.3-1-0.8-1.1-1.5c-0.1-0.6,0.1-1.1,0.5-1.5c1-1,2.2-1.8,3.6-2.3c0.9-0.3,1.8-0.5,2.7-0.6C39.2,46,39.5,46,39.7,46z"/>
</g>
<g>
</g>
<g>
</g>
<g>
</g>
<g>
</g>
<g>
</g>
<g>
</g>
</svg>
